<?xml version="1.0" encoding="utf-8"?>
<!-- Generator: Adobe Illustrator 24.0.0, SVG Export Plug-In . SVG Version: 6.00 Build 0)  -->
<svg version="1.1" id="Capa_1" xmlns="http://www.w3.org/2000/svg" xmlns:xlink="http://www.w3.org/1999/xlink" x="0px" y="0px"
	 viewBox="0 0 608 248" style="enable-background:new 0 0 608 248;" xml:space="preserve">
<style type="text/css">
	.st0{fill:#F26F39;}
	.st1{fill:#F06F3B;}
	.st2{fill:#063A50;}
	.st3{fill:#093C52;}
	.st4{fill:#053950;}
	.st5{fill:#073B51;}
	.st6{fill:#0E4056;}
	.st7{fill:#0B3E54;}
	.st8{fill:#0A3D53;}
	.st9{fill:#03384F;}
	.st10{fill:#F37644;}
</style>
<g>
	<g>
		<path class="st0" d="M137.9,198.6c-0.5,0-0.7-0.2-0.7-0.6v-17.9c0.9-0.1,1.9-0.3,3-0.4c1.1-0.1,2.2-0.2,3.1-0.2
			c2.4,0,4.2,0.5,5.4,1.4c1.2,0.9,1.7,2.5,1.7,4.7c0,1.1-0.2,2.1-0.5,2.9s-0.8,1.4-1.3,1.9c-0.6,0.5-1.3,0.8-2.1,1.1
			c-0.8,0.2-1.7,0.3-2.7,0.3c-0.5,0-1.1,0-1.7-0.1c-0.6-0.1-1.2-0.2-1.8-0.3v7.1H137.9z M140.4,189.3c0.5,0.1,1.1,0.2,1.6,0.2
			c0.5,0.1,1.1,0.1,1.6,0.1c0.6,0,1.2-0.1,1.7-0.2c0.5-0.1,0.9-0.3,1.2-0.6c0.3-0.3,0.6-0.7,0.7-1.2c0.2-0.5,0.2-1.2,0.2-1.9
			c0-0.8-0.1-1.5-0.3-2c-0.2-0.5-0.4-0.9-0.8-1.2c-0.3-0.3-0.8-0.5-1.3-0.6c-0.5-0.1-1.1-0.2-1.7-0.2c-0.6,0-1.2,0-1.7,0.1
			c-0.5,0-1,0.1-1.3,0.1V189.3z"/>
		<path class="st0" d="M154.7,198.6c-0.5,0-0.7-0.2-0.7-0.6v-17.9c0.9-0.1,1.9-0.3,3-0.4c1.1-0.1,2.2-0.2,3.4-0.2
			c2.4,0,4.2,0.5,5.3,1.4c1.1,1,1.6,2.4,1.6,4.3c0,1.4-0.3,2.5-1,3.3c-0.7,0.9-1.6,1.5-2.8,1.8c0.5,0.5,1,1.1,1.5,1.9
			c0.5,0.7,1,1.4,1.4,2.2s0.8,1.5,1.2,2.2c0.4,0.7,0.6,1.4,0.8,1.9h-2.6c-0.3,0-0.5,0-0.6-0.2c-0.1-0.1-0.2-0.2-0.3-0.4
			c-0.2-0.5-0.4-1-0.7-1.6c-0.3-0.6-0.7-1.2-1-1.8c-0.4-0.6-0.8-1.3-1.2-1.9c-0.4-0.6-0.9-1.2-1.4-1.7h-3.2v7.6H154.7z M157.1,188.8
			h3.3c0.5,0,1,0,1.5-0.1c0.5-0.1,0.8-0.3,1.2-0.5s0.6-0.6,0.8-1.1c0.2-0.5,0.3-1,0.3-1.8s-0.1-1.3-0.2-1.7s-0.4-0.8-0.7-1.1
			c-0.3-0.3-0.7-0.5-1.2-0.6c-0.5-0.1-1.1-0.2-1.7-0.2c-0.7,0-1.3,0-1.8,0.1c-0.5,0-1,0.1-1.3,0.1V188.8z"/>
		<path class="st0" d="M185.5,189.2c0,2-0.2,3.7-0.5,4.9c-0.4,1.3-0.9,2.3-1.5,3c-0.7,0.7-1.5,1.2-2.4,1.5c-0.9,0.3-2,0.4-3.1,0.4
			c-1.1,0-2.2-0.1-3.1-0.4c-0.9-0.3-1.7-0.7-2.4-1.5c-0.7-0.7-1.2-1.7-1.5-3c-0.4-1.3-0.5-2.9-0.5-4.9c0-2,0.2-3.7,0.5-4.9
			c0.4-1.3,0.9-2.3,1.5-3c0.7-0.7,1.5-1.2,2.4-1.5c0.9-0.3,2-0.4,3.1-0.4c1.1,0,2.2,0.1,3.1,0.4c0.9,0.3,1.7,0.8,2.4,1.5
			c0.7,0.7,1.2,1.7,1.5,3C185.3,185.5,185.5,187.2,185.5,189.2z M173.5,189.2c0,1.4,0.1,2.6,0.2,3.5c0.1,0.9,0.4,1.7,0.7,2.3
			c0.3,0.6,0.8,1,1.3,1.2c0.6,0.2,1.3,0.4,2.1,0.4c0.8,0,1.6-0.1,2.1-0.4c0.6-0.2,1-0.7,1.3-1.2c0.3-0.6,0.6-1.3,0.7-2.3
			c0.1-0.9,0.2-2.1,0.2-3.5c0-1.4-0.1-2.6-0.2-3.5c-0.1-0.9-0.4-1.7-0.7-2.3c-0.3-0.6-0.8-1-1.3-1.2c-0.6-0.2-1.3-0.4-2.1-0.4
			c-0.8,0-1.6,0.1-2.1,0.4c-0.6,0.2-1,0.7-1.3,1.2c-0.3,0.6-0.6,1.3-0.7,2.3C173.6,186.6,173.5,187.8,173.5,189.2z"/>
		<path class="st0" d="M202.1,188.7c0.5,0,0.7,0.2,0.7,0.6v8.8c-0.7,0.3-1.6,0.5-2.5,0.6c-0.9,0.1-1.9,0.2-3,0.2
			c-1.6,0-2.9-0.2-4-0.5c-1.1-0.4-2-0.9-2.6-1.7c-0.7-0.8-1.1-1.8-1.4-3c-0.3-1.2-0.4-2.7-0.4-4.4c0-1.8,0.2-3.3,0.5-4.6
			c0.3-1.2,0.8-2.2,1.5-3c0.7-0.8,1.5-1.3,2.5-1.6c1-0.3,2.3-0.5,3.7-0.5c1,0,1.9,0.1,2.7,0.2c0.8,0.1,1.3,0.3,1.7,0.4
			c0.2,0.1,0.4,0.2,0.5,0.3c0.1,0.1,0.1,0.3,0.1,0.6v1.2c-0.6-0.1-1.3-0.1-2.1-0.2c-0.8-0.1-1.6-0.1-2.3-0.1c-1,0-1.9,0.1-2.6,0.3
			c-0.7,0.2-1.3,0.5-1.7,1.1c-0.4,0.5-0.7,1.3-0.9,2.2c-0.2,0.9-0.3,2.1-0.3,3.6c0,1.6,0.1,2.9,0.3,3.9c0.2,1,0.6,1.7,1,2.3
			c0.4,0.5,1,0.9,1.7,1.1c0.7,0.2,1.5,0.3,2.4,0.3c0.5,0,0.9,0,1.3,0c0.4,0,0.8-0.1,1.1-0.1V191h-2.6c-0.2,0-0.3-0.1-0.5-0.2
			c-0.1-0.1-0.2-0.3-0.2-0.5v-1.7H202.1z"/>
		<path class="st0" d="M207.4,198.6c-0.5,0-0.7-0.2-0.7-0.6v-17.9c0.9-0.1,1.9-0.3,3-0.4c1.1-0.1,2.2-0.2,3.4-0.2
			c2.4,0,4.2,0.5,5.3,1.4c1.1,1,1.6,2.4,1.6,4.3c0,1.4-0.3,2.5-1,3.3c-0.7,0.9-1.6,1.5-2.8,1.8c0.5,0.5,1,1.1,1.5,1.9
			c0.5,0.7,1,1.4,1.4,2.2s0.8,1.5,1.2,2.2c0.4,0.7,0.6,1.4,0.8,1.9h-2.6c-0.3,0-0.5,0-0.6-0.2c-0.1-0.1-0.2-0.2-0.3-0.4
			c-0.2-0.5-0.4-1-0.7-1.6c-0.3-0.6-0.7-1.2-1-1.8c-0.4-0.6-0.8-1.3-1.2-1.9c-0.4-0.6-0.9-1.2-1.4-1.7h-3.2v7.6H207.4z M209.8,188.8
			h3.3c0.5,0,1,0,1.5-0.1c0.5-0.1,0.8-0.3,1.2-0.5s0.6-0.6,0.8-1.1c0.2-0.5,0.3-1,0.3-1.8s-0.1-1.3-0.2-1.7s-0.4-0.8-0.7-1.1
			c-0.3-0.3-0.7-0.5-1.2-0.6c-0.5-0.1-1.1-0.2-1.7-0.2c-0.7,0-1.3,0-1.8,0.1c-0.5,0-1,0.1-1.3,0.1V188.8z"/>
		<path class="st0" d="M234.6,198c-0.1-0.8-0.3-1.6-0.4-2.4c-0.2-0.8-0.3-1.5-0.5-2.3H227c-0.2,0.9-0.4,1.8-0.6,2.6
			c-0.2,0.9-0.3,1.8-0.5,2.6h-2.3c-0.4,0-0.7-0.2-0.6-0.7c0.1-0.5,0.2-1.1,0.3-1.6c0.4-1.8,0.8-3.4,1.2-5.1c0.4-1.6,0.9-3.1,1.4-4.5
			c0.5-1.4,0.9-2.7,1.4-3.9c0.5-1.2,0.9-2.2,1.4-3.1h3c0.2,0,0.4,0,0.5,0.1c0.1,0.1,0.2,0.2,0.3,0.4c0.4,0.9,0.9,2,1.4,3.3
			c0.5,1.3,1,2.7,1.5,4.3c0.5,1.6,1,3.3,1.4,5.1c0.4,1.8,0.8,3.7,1.2,5.6h-2.6C235,198.6,234.7,198.4,234.6,198z M230.3,182.1
			c-0.5,1.3-1,2.7-1.5,4.2c-0.5,1.5-1,3.1-1.5,4.9h6c-0.5-1.7-1-3.4-1.5-4.9C231.4,184.8,230.8,183.4,230.3,182.1z"/>
		<path class="st0" d="M255.5,198c0-1.1,0-2.2-0.1-3.5c0-1.2-0.1-2.5-0.1-3.8c0-1.3-0.1-2.5-0.1-3.8c0-1.3-0.1-2.4-0.1-3.5
			l-4.2,10.4h-2.1c-0.3,0-0.4-0.1-0.5-0.2c-0.1-0.1-0.2-0.3-0.3-0.5l-3.9-9.8c0,1.1-0.1,2.4-0.1,3.7c0,1.3-0.1,2.6-0.1,4
			c0,1.3-0.1,2.7-0.1,4c0,1.3,0,2.5,0,3.6h-2.3c-0.5,0-0.7-0.2-0.7-0.6c0-3,0.1-5.9,0.3-8.9c0.2-3,0.3-6.1,0.5-9.3h3.2
			c0.4,0,0.7,0.2,0.8,0.6l4.2,10.6l4.4-11.2h3c0.2,0,0.4,0.1,0.5,0.2c0.1,0.1,0.2,0.3,0.2,0.5c0.2,3,0.4,6,0.5,9s0.2,6.1,0.3,9.3
			h-2.4C255.7,198.6,255.5,198.4,255.5,198z"/>
		<path class="st0" d="M273.1,198c-0.1-0.8-0.3-1.6-0.4-2.4c-0.2-0.8-0.3-1.5-0.5-2.3h-6.8c-0.2,0.9-0.4,1.8-0.6,2.6
			c-0.2,0.9-0.3,1.8-0.5,2.6H262c-0.4,0-0.7-0.2-0.6-0.7c0.1-0.5,0.2-1.1,0.3-1.6c0.4-1.8,0.8-3.4,1.2-5.1c0.4-1.6,0.9-3.1,1.4-4.5
			c0.5-1.4,0.9-2.7,1.4-3.9c0.5-1.2,0.9-2.2,1.4-3.1h3c0.2,0,0.4,0,0.5,0.1c0.1,0.1,0.2,0.2,0.3,0.4c0.4,0.9,0.9,2,1.4,3.3
			c0.5,1.3,1,2.7,1.5,4.3c0.5,1.6,1,3.3,1.4,5.1c0.4,1.8,0.8,3.7,1.2,5.6h-2.6C273.4,198.6,273.1,198.4,273.1,198z M268.7,182.1
			c-0.5,1.3-1,2.7-1.5,4.2c-0.5,1.5-1,3.1-1.5,4.9h6c-0.5-1.7-1-3.4-1.5-4.9C269.8,184.8,269.2,183.4,268.7,182.1z"/>
		<path class="st0" d="M299.8,198.6h-2.5c-0.3,0-0.6-0.2-0.8-0.6c-0.3-0.6-0.7-1.3-1.2-2.1c-0.4-0.8-0.9-1.6-1.4-2.5
			c-0.5-0.9-1-1.8-1.5-2.7c-0.5-0.9-1-1.8-1.5-2.6c-0.5-0.8-0.9-1.5-1.3-2.2c-0.4-0.7-0.7-1.2-1-1.6v14.3h-2.3
			c-0.5,0-0.7-0.2-0.7-0.6v-18.3h2.5c0.2,0,0.4,0.1,0.5,0.2c0.1,0.1,0.2,0.3,0.4,0.5c0.3,0.4,0.6,0.9,1,1.6c0.4,0.6,0.8,1.3,1.3,2.1
			c0.5,0.8,1,1.6,1.5,2.4c0.5,0.9,1,1.7,1.5,2.5c0.5,0.8,1,1.7,1.4,2.5c0.5,0.8,0.9,1.5,1.2,2.1v-13.9h2.3c0.5,0,0.7,0.2,0.7,0.6
			V198.6z"/>
		<path class="st0" d="M314.5,198c-0.1-0.8-0.3-1.6-0.4-2.4c-0.2-0.8-0.3-1.5-0.5-2.3h-6.8c-0.2,0.9-0.4,1.8-0.6,2.6
			s-0.3,1.8-0.5,2.6h-2.3c-0.4,0-0.7-0.2-0.6-0.7c0.1-0.5,0.2-1.1,0.3-1.6c0.4-1.8,0.8-3.4,1.2-5.1c0.4-1.6,0.9-3.1,1.4-4.5
			c0.5-1.4,0.9-2.7,1.4-3.9c0.5-1.2,0.9-2.2,1.4-3.1h3c0.2,0,0.4,0,0.5,0.1c0.1,0.1,0.2,0.2,0.3,0.4c0.4,0.9,0.9,2,1.4,3.3
			c0.5,1.3,1,2.7,1.5,4.3c0.5,1.6,1,3.3,1.4,5.1c0.4,1.8,0.8,3.7,1.2,5.6h-2.6C314.8,198.6,314.6,198.4,314.5,198z M310.2,182.1
			c-0.5,1.3-1,2.7-1.5,4.2c-0.5,1.5-1,3.1-1.5,4.9h6c-0.5-1.7-1-3.4-1.5-4.9C311.2,184.8,310.7,183.4,310.2,182.1z"/>
		<path class="st0" d="M327.6,179.5c0.7,0,1.4,0,2.2,0.2c0.8,0.1,1.3,0.2,1.8,0.4c0.2,0.1,0.4,0.2,0.5,0.4c0.1,0.1,0.1,0.3,0.1,0.6
			v1.3c-0.6-0.1-1.2-0.1-2-0.2c-0.7-0.1-1.5-0.1-2.2-0.1c-0.9,0-1.7,0.1-2.3,0.3c-0.6,0.2-1.1,0.6-1.5,1.2c-0.4,0.5-0.7,1.3-0.8,2.2
			c-0.2,0.9-0.2,2.1-0.2,3.4c0,1.5,0.1,2.8,0.3,3.7c0.2,1,0.5,1.7,0.9,2.2s0.9,0.9,1.5,1.1c0.6,0.2,1.3,0.3,2.2,0.3
			c0.8,0,1.6,0,2.2-0.1c0.6-0.1,1.1-0.1,1.4-0.1c0.5,0,0.8,0.2,0.8,0.7v1.3c-0.6,0.2-1.3,0.4-2.1,0.5c-0.8,0.2-1.8,0.2-2.8,0.2
			c-1.3,0-2.5-0.2-3.4-0.5c-0.9-0.4-1.7-0.9-2.3-1.7c-0.6-0.8-1.1-1.8-1.3-3c-0.3-1.2-0.4-2.7-0.4-4.4c0-1.7,0.1-3.2,0.4-4.5
			c0.3-1.2,0.7-2.2,1.3-3c0.6-0.8,1.4-1.3,2.4-1.7C325,179.6,326.2,179.5,327.6,179.5z"/>
		<path class="st0" d="M336.3,198.6c-0.5,0-0.7-0.2-0.7-0.6v-18.3h2.5c0.5,0,0.7,0.2,0.7,0.6v18.3H336.3z"/>
		<path class="st0" d="M357.8,189.2c0,2-0.2,3.7-0.5,4.9c-0.4,1.3-0.9,2.3-1.5,3c-0.7,0.7-1.5,1.2-2.4,1.5c-0.9,0.3-2,0.4-3.1,0.4
			c-1.1,0-2.2-0.1-3.1-0.4c-0.9-0.3-1.7-0.7-2.4-1.5c-0.7-0.7-1.2-1.7-1.5-3c-0.4-1.3-0.5-2.9-0.5-4.9c0-2,0.2-3.7,0.5-4.9
			c0.4-1.3,0.9-2.3,1.5-3c0.7-0.7,1.5-1.2,2.4-1.5c0.9-0.3,2-0.4,3.1-0.4c1.1,0,2.2,0.1,3.1,0.4c0.9,0.3,1.7,0.8,2.4,1.5
			c0.7,0.7,1.2,1.7,1.5,3C357.6,185.5,357.8,187.2,357.8,189.2z M345.8,189.2c0,1.4,0.1,2.6,0.2,3.5c0.1,0.9,0.4,1.7,0.7,2.3
			c0.3,0.6,0.8,1,1.3,1.2c0.6,0.2,1.3,0.4,2.1,0.4c0.8,0,1.6-0.1,2.1-0.4c0.6-0.2,1-0.7,1.3-1.2c0.3-0.6,0.6-1.3,0.7-2.3
			c0.1-0.9,0.2-2.1,0.2-3.5c0-1.4-0.1-2.6-0.2-3.5c-0.1-0.9-0.4-1.7-0.7-2.3c-0.3-0.6-0.8-1-1.3-1.2c-0.6-0.2-1.3-0.4-2.1-0.4
			c-0.8,0-1.6,0.1-2.1,0.4c-0.6,0.2-1,0.7-1.3,1.2c-0.3,0.6-0.6,1.3-0.7,2.3C345.9,186.6,345.8,187.8,345.8,189.2z"/>
		<path class="st0" d="M375.9,198.6h-2.5c-0.3,0-0.6-0.2-0.8-0.6c-0.3-0.6-0.7-1.3-1.2-2.1c-0.4-0.8-0.9-1.6-1.4-2.5s-1-1.8-1.5-2.7
			c-0.5-0.9-1-1.8-1.5-2.6c-0.5-0.8-0.9-1.5-1.3-2.2c-0.4-0.7-0.7-1.2-1-1.6v14.3h-2.3c-0.5,0-0.7-0.2-0.7-0.6v-18.3h2.5
			c0.2,0,0.4,0.1,0.5,0.2c0.1,0.1,0.2,0.3,0.4,0.5c0.3,0.4,0.6,0.9,1,1.6c0.4,0.6,0.8,1.3,1.3,2.1c0.5,0.8,1,1.6,1.5,2.4
			s1,1.7,1.5,2.5c0.5,0.8,1,1.7,1.4,2.5s0.9,1.5,1.2,2.1v-13.9h2.3c0.5,0,0.7,0.2,0.7,0.6V198.6z"/>
		<path class="st0" d="M390.7,198c-0.1-0.8-0.3-1.6-0.4-2.4c-0.2-0.8-0.3-1.5-0.5-2.3H383c-0.2,0.9-0.4,1.8-0.6,2.6
			c-0.2,0.9-0.3,1.8-0.5,2.6h-2.3c-0.4,0-0.7-0.2-0.6-0.7c0.1-0.5,0.2-1.1,0.3-1.6c0.4-1.8,0.8-3.4,1.2-5.1c0.4-1.6,0.9-3.1,1.4-4.5
			c0.5-1.4,0.9-2.7,1.4-3.9c0.5-1.2,0.9-2.2,1.4-3.1h3c0.2,0,0.4,0,0.5,0.1c0.1,0.1,0.2,0.2,0.3,0.4c0.4,0.9,0.9,2,1.4,3.3
			c0.5,1.3,1,2.7,1.5,4.3c0.5,1.6,1,3.3,1.4,5.1c0.4,1.8,0.8,3.7,1.2,5.6h-2.6C391,198.6,390.8,198.4,390.7,198z M386.4,182.1
			c-0.5,1.3-1,2.7-1.5,4.2c-0.5,1.5-1,3.1-1.5,4.9h6c-0.5-1.7-1-3.4-1.5-4.9C387.4,184.8,386.9,183.4,386.4,182.1z"/>
		<path class="st0" d="M397.7,198.6c-0.5,0-0.7-0.2-0.7-0.6v-18.3h2.5c0.2,0,0.4,0.1,0.5,0.2c0.1,0.1,0.2,0.3,0.2,0.5v15.9h7.5
			c0.5,0,0.7,0.2,0.7,0.6v1.8H397.7z"/>
		<path class="st0" d="M418.1,198.6c-0.5,0-0.7-0.2-0.7-0.6v-17.9c0.5-0.1,1-0.1,1.5-0.2c0.5-0.1,1.1-0.1,1.6-0.2s1.1-0.1,1.6-0.1
			c0.5,0,1,0,1.5,0c1.4,0,2.7,0.2,3.7,0.5c1,0.3,1.9,0.9,2.5,1.6c0.7,0.7,1.2,1.7,1.5,2.9s0.5,2.7,0.5,4.5c0,1.8-0.2,3.3-0.5,4.5
			c-0.3,1.2-0.8,2.2-1.4,3c-0.6,0.8-1.5,1.3-2.5,1.6c-1,0.3-2.2,0.5-3.7,0.5H418.1z M423.5,181.8c-0.5,0-1,0-1.5,0.1
			c-0.6,0-1,0.1-1.4,0.1v14.3h2.9c0.9,0,1.6-0.1,2.3-0.3c0.6-0.2,1.2-0.5,1.6-1c0.4-0.5,0.7-1.3,0.9-2.2s0.3-2.3,0.3-3.9
			c0-1.4-0.1-2.6-0.3-3.5c-0.2-0.9-0.5-1.6-0.8-2.2c-0.4-0.5-0.9-0.9-1.6-1.1C425.3,181.9,424.5,181.8,423.5,181.8z"/>
		<path class="st0" d="M446.8,179.7c0.5,0,0.7,0.2,0.7,0.6v1.7h-8.7v5.8h7.2c0.5,0,0.7,0.2,0.7,0.6v1.7h-7.9v6h8.3
			c0.2,0,0.4,0.1,0.5,0.2c0.1,0.1,0.2,0.3,0.2,0.5v1.7h-11.5c-0.5,0-0.7-0.2-0.7-0.6v-18.3H446.8z"/>
		<path class="st0" d="M141.5,213.3h-4.8c-0.5,0-0.7-0.2-0.7-0.6v-1.8h13.6c0.2,0,0.4,0.1,0.5,0.2c0.1,0.1,0.2,0.3,0.2,0.5v1.8h-5.6
			v16.5h-2.5c-0.5,0-0.7-0.2-0.7-0.6V213.3z"/>
		<path class="st0" d="M164.3,210.9c0.5,0,0.7,0.2,0.7,0.6v1.7h-8.7v5.8h7.2c0.5,0,0.7,0.2,0.7,0.6v1.7h-7.9v6h8.3
			c0.2,0,0.4,0.1,0.5,0.2c0.1,0.1,0.2,0.3,0.2,0.5v1.7h-11.5c-0.5,0-0.7-0.2-0.7-0.6v-18.3H164.3z"/>
		<path class="st0" d="M169.4,229.8c-0.5,0-0.7-0.2-0.7-0.6v-18.3h2.5c0.2,0,0.4,0.1,0.5,0.2c0.1,0.1,0.2,0.3,0.2,0.5v15.9h7.5
			c0.5,0,0.7,0.2,0.7,0.6v1.8H169.4z"/>
		<path class="st0" d="M194.2,210.9c0.5,0,0.7,0.2,0.7,0.6v1.7h-8.7v5.8h7.2c0.5,0,0.7,0.2,0.7,0.6v1.7h-7.9v6h8.3
			c0.2,0,0.4,0.1,0.5,0.2c0.1,0.1,0.2,0.3,0.2,0.5v1.7h-11.5c-0.5,0-0.7-0.2-0.7-0.6v-18.3H194.2z"/>
		<path class="st0" d="M205.5,210.6c0.7,0,1.4,0,2.2,0.2c0.8,0.1,1.3,0.2,1.8,0.4c0.2,0.1,0.4,0.2,0.5,0.4c0.1,0.1,0.1,0.3,0.1,0.6
			v1.3c-0.6-0.1-1.2-0.1-2-0.2c-0.7-0.1-1.5-0.1-2.2-0.1c-0.9,0-1.7,0.1-2.3,0.3c-0.6,0.2-1.1,0.6-1.5,1.2c-0.4,0.5-0.7,1.3-0.8,2.2
			c-0.2,0.9-0.2,2.1-0.2,3.4c0,1.5,0.1,2.8,0.3,3.7c0.2,1,0.5,1.7,0.9,2.2c0.4,0.5,0.9,0.9,1.5,1.1c0.6,0.2,1.3,0.3,2.2,0.3
			c0.8,0,1.6,0,2.2-0.1c0.6-0.1,1.1-0.1,1.4-0.1c0.5,0,0.8,0.2,0.8,0.7v1.3c-0.6,0.2-1.3,0.4-2.1,0.5c-0.8,0.2-1.8,0.2-2.8,0.2
			c-1.3,0-2.5-0.2-3.4-0.5c-1-0.4-1.7-0.9-2.3-1.7c-0.6-0.8-1.1-1.8-1.3-3c-0.3-1.2-0.4-2.7-0.4-4.4c0-1.7,0.1-3.2,0.4-4.5
			c0.3-1.2,0.7-2.2,1.3-3c0.6-0.8,1.4-1.3,2.4-1.7C202.9,210.8,204.1,210.6,205.5,210.6z"/>
		<path class="st0" d="M227.4,220.3c0,2-0.2,3.7-0.5,4.9c-0.4,1.3-0.9,2.3-1.5,3c-0.7,0.7-1.5,1.2-2.4,1.5c-0.9,0.3-2,0.4-3.1,0.4
			c-1.1,0-2.2-0.1-3.1-0.4c-0.9-0.3-1.7-0.7-2.4-1.5c-0.7-0.7-1.2-1.7-1.5-3c-0.4-1.3-0.5-2.9-0.5-4.9s0.2-3.7,0.5-4.9
			c0.4-1.3,0.9-2.3,1.5-3c0.7-0.7,1.5-1.2,2.4-1.5c0.9-0.3,2-0.4,3.1-0.4c1.1,0,2.2,0.1,3.1,0.4c0.9,0.3,1.7,0.8,2.4,1.5
			c0.7,0.7,1.2,1.7,1.5,3C227.2,216.7,227.4,218.3,227.4,220.3z M215.4,220.3c0,1.4,0.1,2.6,0.2,3.5c0.1,0.9,0.4,1.7,0.7,2.3
			s0.8,1,1.3,1.2c0.6,0.2,1.3,0.4,2.1,0.4c0.8,0,1.6-0.1,2.1-0.4c0.6-0.2,1-0.7,1.3-1.2c0.3-0.6,0.6-1.3,0.7-2.3
			c0.1-0.9,0.2-2.1,0.2-3.5c0-1.4-0.1-2.6-0.2-3.5c-0.1-0.9-0.4-1.7-0.7-2.3c-0.3-0.6-0.8-1-1.3-1.2c-0.6-0.2-1.3-0.4-2.1-0.4
			c-0.8,0-1.6,0.1-2.1,0.4c-0.6,0.2-1,0.7-1.3,1.2c-0.3,0.6-0.6,1.3-0.7,2.3C215.5,217.8,215.4,218.9,215.4,220.3z"/>
		<path class="st0" d="M245.6,229.2c0-1.1,0-2.2-0.1-3.5c0-1.2-0.1-2.5-0.1-3.8c0-1.3-0.1-2.5-0.1-3.8c0-1.3-0.1-2.4-0.1-3.5
			L241,225h-2.1c-0.3,0-0.4-0.1-0.5-0.2c-0.1-0.1-0.2-0.3-0.3-0.5l-3.9-9.8c0,1.1-0.1,2.4-0.1,3.7c0,1.3-0.1,2.6-0.1,4
			c0,1.3-0.1,2.7-0.1,4c0,1.3,0,2.5,0,3.6h-2.3c-0.5,0-0.7-0.2-0.7-0.6c0-3,0.1-5.9,0.3-8.9c0.2-3,0.3-6.1,0.5-9.3h3.2
			c0.4,0,0.7,0.2,0.8,0.6l4.2,10.6l4.4-11.2h3c0.2,0,0.4,0.1,0.5,0.2c0.1,0.1,0.2,0.3,0.2,0.5c0.2,3,0.4,6,0.5,9
			c0.1,3,0.2,6.1,0.3,9.3h-2.4C245.8,229.8,245.6,229.6,245.6,229.2z"/>
		<path class="st0" d="M266.5,223.1c0,2.4-0.5,4.2-1.6,5.3c-1.1,1.1-2.9,1.7-5.3,1.7c-1.1,0-2.1-0.1-3-0.3c-0.9-0.2-1.6-0.6-2.2-1.1
			c-0.6-0.5-1.1-1.2-1.4-2.1c-0.3-0.9-0.5-2-0.5-3.4v-12.2h2.5c0.5,0,0.7,0.2,0.7,0.6v11.9c0,0.7,0.1,1.2,0.2,1.8
			c0.1,0.5,0.3,1,0.6,1.3c0.3,0.4,0.7,0.7,1.2,0.8c0.5,0.2,1.1,0.3,1.9,0.3c0.8,0,1.4-0.1,1.9-0.3c0.5-0.2,0.9-0.5,1.2-0.8
			s0.5-0.8,0.6-1.3c0.1-0.5,0.2-1.1,0.2-1.8v-12.5h2.5c0.2,0,0.4,0.1,0.5,0.2c0.1,0.1,0.2,0.3,0.2,0.5V223.1z"/>
		<path class="st0" d="M285,229.8h-2.5c-0.3,0-0.6-0.2-0.8-0.6c-0.3-0.6-0.7-1.3-1.2-2.1c-0.4-0.8-0.9-1.6-1.4-2.5
			c-0.5-0.9-1-1.8-1.5-2.7c-0.5-0.9-1-1.8-1.5-2.6c-0.5-0.8-0.9-1.5-1.3-2.2c-0.4-0.7-0.7-1.2-1-1.6v14.3h-2.3
			c-0.5,0-0.7-0.2-0.7-0.6v-18.3h2.5c0.2,0,0.4,0.1,0.5,0.2c0.1,0.1,0.2,0.3,0.4,0.5c0.3,0.4,0.6,0.9,1,1.6c0.4,0.6,0.8,1.3,1.3,2.1
			c0.5,0.8,1,1.6,1.5,2.4c0.5,0.9,1,1.7,1.5,2.5c0.5,0.8,1,1.7,1.4,2.5c0.5,0.8,0.9,1.5,1.2,2.1v-13.9h2.3c0.5,0,0.7,0.2,0.7,0.6
			V229.8z"/>
		<path class="st0" d="M290,229.8c-0.5,0-0.7-0.2-0.7-0.6v-18.3h2.5c0.5,0,0.7,0.2,0.7,0.6v18.3H290z"/>
		<path class="st0" d="M303.9,210.6c0.7,0,1.4,0,2.2,0.2c0.8,0.1,1.3,0.2,1.8,0.4c0.2,0.1,0.4,0.2,0.5,0.4c0.1,0.1,0.1,0.3,0.1,0.6
			v1.3c-0.6-0.1-1.2-0.1-2-0.2c-0.7-0.1-1.5-0.1-2.2-0.1c-0.9,0-1.7,0.1-2.3,0.3c-0.6,0.2-1.1,0.6-1.5,1.2c-0.4,0.5-0.7,1.3-0.8,2.2
			c-0.2,0.9-0.2,2.1-0.2,3.4c0,1.5,0.1,2.8,0.3,3.7c0.2,1,0.5,1.7,0.9,2.2s0.9,0.9,1.5,1.1c0.6,0.2,1.3,0.3,2.2,0.3
			c0.8,0,1.6,0,2.2-0.1c0.6-0.1,1.1-0.1,1.4-0.1c0.5,0,0.8,0.2,0.8,0.7v1.3c-0.6,0.2-1.3,0.4-2.1,0.5c-0.8,0.2-1.8,0.2-2.8,0.2
			c-1.3,0-2.5-0.2-3.4-0.5c-1-0.4-1.7-0.9-2.3-1.7c-0.6-0.8-1.1-1.8-1.3-3c-0.3-1.2-0.4-2.7-0.4-4.4c0-1.7,0.1-3.2,0.4-4.5
			c0.3-1.2,0.7-2.2,1.3-3c0.6-0.8,1.4-1.3,2.4-1.7C301.4,210.8,302.6,210.6,303.9,210.6z"/>
		<path class="st0" d="M322.4,229.2c-0.1-0.8-0.3-1.6-0.4-2.4c-0.2-0.8-0.3-1.5-0.5-2.3h-6.8c-0.2,0.9-0.4,1.8-0.6,2.6
			s-0.3,1.8-0.5,2.6h-2.3c-0.4,0-0.7-0.2-0.6-0.7c0.1-0.5,0.2-1.1,0.3-1.6c0.4-1.8,0.8-3.4,1.2-5.1c0.4-1.6,0.9-3.1,1.4-4.5
			c0.5-1.4,0.9-2.7,1.4-3.9c0.5-1.2,0.9-2.2,1.4-3.1h3c0.2,0,0.4,0,0.5,0.1c0.1,0.1,0.2,0.2,0.3,0.4c0.4,0.9,0.9,2,1.4,3.3
			c0.5,1.3,1,2.7,1.5,4.3c0.5,1.6,1,3.3,1.4,5.1c0.4,1.8,0.8,3.7,1.2,5.6h-2.6C322.7,229.8,322.5,229.6,322.4,229.2z M318.1,213.2
			c-0.5,1.3-1,2.7-1.5,4.2c-0.5,1.5-1,3.1-1.5,4.9h6c-0.5-1.7-1-3.4-1.5-4.9C319.1,215.9,318.6,214.5,318.1,213.2z"/>
		<path class="st0" d="M335.5,210.6c0.7,0,1.4,0,2.2,0.2c0.8,0.1,1.3,0.2,1.8,0.4c0.2,0.1,0.4,0.2,0.5,0.4c0.1,0.1,0.1,0.3,0.1,0.6
			v1.3c-0.6-0.1-1.2-0.1-2-0.2c-0.7-0.1-1.5-0.1-2.2-0.1c-0.9,0-1.7,0.1-2.3,0.3c-0.6,0.2-1.1,0.6-1.5,1.2c-0.4,0.5-0.7,1.3-0.8,2.2
			c-0.2,0.9-0.2,2.1-0.2,3.4c0,1.5,0.1,2.8,0.3,3.7c0.2,1,0.5,1.7,0.9,2.2s0.9,0.9,1.5,1.1c0.6,0.2,1.3,0.3,2.2,0.3
			c0.8,0,1.6,0,2.2-0.1c0.6-0.1,1.1-0.1,1.4-0.1c0.5,0,0.8,0.2,0.8,0.7v1.3c-0.6,0.2-1.3,0.4-2.1,0.5c-0.8,0.2-1.8,0.2-2.8,0.2
			c-1.3,0-2.5-0.2-3.4-0.5c-0.9-0.4-1.7-0.9-2.3-1.7c-0.6-0.8-1.1-1.8-1.3-3c-0.3-1.2-0.4-2.7-0.4-4.4c0-1.7,0.1-3.2,0.4-4.5
			c0.3-1.2,0.7-2.2,1.3-3c0.6-0.8,1.4-1.3,2.4-1.7C333,210.8,334.1,210.6,335.5,210.6z"/>
		<path class="st0" d="M344.2,229.8c-0.5,0-0.7-0.2-0.7-0.6v-18.3h2.5c0.5,0,0.7,0.2,0.7,0.6v18.3H344.2z"/>
		<path class="st0" d="M365.7,220.3c0,2-0.2,3.7-0.5,4.9c-0.4,1.3-0.9,2.3-1.5,3c-0.7,0.7-1.5,1.2-2.4,1.5c-0.9,0.3-2,0.4-3.1,0.4
			c-1.1,0-2.2-0.1-3.1-0.4c-0.9-0.3-1.7-0.7-2.4-1.5c-0.7-0.7-1.2-1.7-1.5-3c-0.4-1.3-0.5-2.9-0.5-4.9s0.2-3.7,0.5-4.9
			c0.4-1.3,0.9-2.3,1.5-3c0.7-0.7,1.5-1.2,2.4-1.5c0.9-0.3,2-0.4,3.1-0.4c1.1,0,2.2,0.1,3.1,0.4c0.9,0.3,1.7,0.8,2.4,1.5
			c0.7,0.7,1.2,1.7,1.5,3C365.5,216.7,365.7,218.3,365.7,220.3z M353.8,220.3c0,1.4,0.1,2.6,0.2,3.5c0.1,0.9,0.4,1.7,0.7,2.3
			c0.3,0.6,0.8,1,1.3,1.2c0.6,0.2,1.3,0.4,2.1,0.4c0.8,0,1.6-0.1,2.1-0.4c0.6-0.2,1-0.7,1.3-1.2c0.3-0.6,0.6-1.3,0.7-2.3
			c0.1-0.9,0.2-2.1,0.2-3.5c0-1.4-0.1-2.6-0.2-3.5c-0.1-0.9-0.4-1.7-0.7-2.3c-0.3-0.6-0.8-1-1.3-1.2c-0.6-0.2-1.3-0.4-2.1-0.4
			c-0.8,0-1.6,0.1-2.1,0.4c-0.6,0.2-1,0.7-1.3,1.2c-0.3,0.6-0.6,1.3-0.7,2.3C353.8,217.8,353.8,218.9,353.8,220.3z"/>
		<path class="st0" d="M383.9,229.8h-2.5c-0.3,0-0.6-0.2-0.8-0.6c-0.3-0.6-0.7-1.3-1.2-2.1c-0.4-0.8-0.9-1.6-1.4-2.5s-1-1.8-1.5-2.7
			c-0.5-0.9-1-1.8-1.5-2.6c-0.5-0.8-0.9-1.5-1.3-2.2c-0.4-0.7-0.7-1.2-1-1.6v14.3h-2.3c-0.5,0-0.7-0.2-0.7-0.6v-18.3h2.5
			c0.2,0,0.4,0.1,0.5,0.2c0.1,0.1,0.2,0.3,0.4,0.5c0.3,0.4,0.6,0.9,1,1.6c0.4,0.6,0.8,1.3,1.3,2.1c0.5,0.8,1,1.6,1.5,2.4
			c0.5,0.9,1,1.7,1.5,2.5c0.5,0.8,1,1.7,1.4,2.5s0.9,1.5,1.2,2.1v-13.9h2.3c0.5,0,0.7,0.2,0.7,0.6V229.8z"/>
		<path class="st0" d="M399.3,210.9c0.5,0,0.7,0.2,0.7,0.6v1.7h-8.7v5.8h7.2c0.5,0,0.7,0.2,0.7,0.6v1.7h-7.9v6h8.3
			c0.2,0,0.4,0.1,0.5,0.2c0.1,0.1,0.2,0.3,0.2,0.5v1.7h-11.5c-0.5,0-0.7-0.2-0.7-0.6v-18.3H399.3z"/>
		<path class="st0" d="M403,215.8c0-1.7,0.5-3,1.6-3.9s2.8-1.3,5.1-1.3c0.8,0,1.7,0,2.5,0.2c0.8,0.1,1.5,0.2,2,0.4
			c0.3,0.1,0.5,0.3,0.6,0.4c0.1,0.2,0.1,0.3,0.1,0.5v1.3c-0.7-0.1-1.5-0.2-2.3-0.2c-0.8-0.1-1.6-0.1-2.4-0.1c-0.8,0-1.4,0.1-2,0.2
			c-0.5,0.1-0.9,0.3-1.3,0.5c-0.3,0.2-0.5,0.5-0.7,0.8c-0.1,0.3-0.2,0.7-0.2,1.1c0,0.5,0.1,0.9,0.2,1.2c0.1,0.3,0.4,0.6,0.7,0.8
			c0.3,0.2,0.8,0.5,1.3,0.6c0.5,0.2,1.2,0.4,2,0.7c0.8,0.3,1.5,0.5,2.2,0.8c0.7,0.3,1.2,0.6,1.7,1c0.5,0.4,0.8,0.9,1.1,1.5
			c0.3,0.6,0.4,1.3,0.4,2.2c0,2-0.6,3.4-1.8,4.2c-1.2,0.8-2.9,1.3-5.1,1.3c-1,0-1.9-0.1-2.8-0.2c-0.9-0.1-1.6-0.3-2.1-0.4
			c-0.3-0.1-0.4-0.2-0.5-0.4c-0.1-0.1-0.2-0.3-0.2-0.5v-1.4c0.7,0.1,1.5,0.2,2.3,0.3c0.9,0.1,1.8,0.1,2.7,0.1c0.8,0,1.6-0.1,2.1-0.2
			c0.6-0.1,1-0.3,1.3-0.6s0.5-0.5,0.7-0.9c0.1-0.4,0.2-0.8,0.2-1.2c0-0.5-0.1-0.9-0.2-1.3c-0.1-0.3-0.4-0.6-0.7-0.8
			c-0.3-0.2-0.8-0.4-1.3-0.6c-0.5-0.2-1.2-0.4-2-0.7c-0.8-0.3-1.6-0.6-2.3-0.8c-0.7-0.3-1.2-0.6-1.7-1c-0.5-0.4-0.8-0.9-1-1.5
			C403.1,217.4,403,216.7,403,215.8z"/>
	</g>
	<path class="st1" d="M66.8,119.2C47.3,111.1,27.9,103,8.4,95C8.3,88.5,7.8,82,8.2,75.6c1-15,13.4-27.5,28.1-29
		c17.1-1.7,32.1,7.8,36,23.3c1.1,4.3,3.5,9.6-3.2,12.4c-3.1,1.3-1.9,4.5-1.9,6.9C66.9,99.2,66.9,109.2,66.8,119.2z M46.1,77.4
		c-0.4-3-2.3-4.7-5.3-4.3c-2.4,0.3-4,2-3.9,4.7c0.2,3.2,2.2,4.5,5.2,4.2C44.9,81.7,46,79.9,46.1,77.4z"/>
	<path class="st2" d="M341.1,128.3c0,8-0.1,16,0,24c0,4.1,0.4,8-5.7,7.5c-4.8-0.3-11,1-11.1-6.1c-0.4-16.8-0.4-33.7-0.2-50.5
		c0.1-4.6,4.5-5.2,8-5.6c6.1-0.7,12,0,15.2,6.2c4.6,8.8,9,17.7,15.3,26.4c0-8.4,0.2-16.8-0.1-25.2c-0.2-5.2,1.3-7.9,7.1-7.7
		c5.2,0.2,10.3,0.5,10.3,7.3c0.1,16.5,0,33,0.1,49.6c0,3.8-2.2,5.2-5.5,5.4c-6.9,0.6-14,1.7-18-6.1c-4.4-8.5-8.6-17.1-12.9-25.7
		C342.8,128,341.9,128.2,341.1,128.3z"/>
	<path class="st3" d="M284.2,96.4c19.5,0,32.5,12.8,32.5,32.2c0.1,19.9-13.1,33-33,32.8c-19.4-0.2-32-13.1-31.9-32.8
		C251.9,109,264.5,96.4,284.2,96.4z M297.9,128.7c0-11.4-4.7-17.6-13.4-17.8c-9-0.2-14.4,6.6-14.3,18c0.1,11.1,5.1,17.6,13.6,17.8
		C293,146.9,298,140.5,297.9,128.7z"/>
	<path class="st4" d="M194.9,128.9c0-7.5,0.2-14.9-0.1-22.4c-0.2-4.8,2-7.3,6.4-8.2c10.4-2.1,20.8-3.1,31,0.7
		c14.3,5.3,18.5,21.5,8,32.3c-4.2,4.3-4.8,7-0.5,10.9c0.7,0.6,1.4,1.4,1.8,2.3c2.3,4.3,9.7,7.7,2.6,13.6c-5.1,4.3-12.6,2.2-17.4-4.8
		c-2.2-3.2-4.2-6.6-6.3-9.9c-1.2-2-2.5-3.9-5.3-3.4c-3.6,0.6-2,3.5-2.3,5.5c-0.2,1.9-0.2,3.9,0,5.8c0.4,4.9,0.3,8.9-6.8,8.6
		c-6.2-0.3-11.3-0.7-11.1-8.6C195,143.8,194.9,136.4,194.9,128.9z M217.8,126.4c5.9-0.2,9.7-2.3,9.6-8c-0.1-5.7-4.2-7.3-9.4-7.6
		c-8.5-0.4-4.7,5.8-5.3,9.4C211.9,124.5,213.2,127.4,217.8,126.4z"/>
	<path class="st5" d="M417.5,97.4c8.6-0.2,13.8,2.9,16,11.4c3.5,13.7,8.1,27.2,12,40.8c1,3.6,4.6,8.6-2.4,10
		c-5.3,1.1-12.4,2.8-14-4.5c-2.6-12-11.3-7.8-18.3-8.1c-4.1-0.2-4,4-4.4,6.5c-1.5,8.7-7.7,7.4-13.4,6.2c-6.9-1.5-5.9-6.6-4.3-11.5
		c4.3-13.2,9.1-26.2,12.9-39.5C404,99.8,409.6,96.9,417.5,97.4z M411.5,132c3.8,1.4,9.3,2.3,10.2,0.1c2.2-5.7-2.1-11.1-3.4-17.7
		C413.9,120.2,413.2,126.2,411.5,132z"/>
	<path class="st6" d="M503.8,128.6c0-6.5,0-13,0-19.4c0-7.1,3.6-10.8,10.8-10.9c9.2-0.1,18.3,0.1,27.5-0.1c4.2-0.1,6.9,0.9,7.1,5.7
		c0.2,5-1.4,8.3-6.8,8.6c-5.2,0.2-10.5,0.1-15.7,0.1c-2.8,0-5.1,0.1-5.2,3.9c-0.1,4.1,1.8,5,5.3,4.9c4.2-0.1,8.5,0.2,12.8-0.1
		c4.7-0.4,6.7,1.9,7,6c0.3,4.4-1.4,7.7-6.4,8c-4.2,0.2-8.5,0.2-12.8,0.1c-3.9-0.1-6,0.8-6,5.3c0,4.7,2.3,5.2,6.1,5.1
		c5.2-0.2,10.5,0.3,15.7-0.1c5-0.4,6.3,2.2,6.4,6.3c0,3.8-0.7,7.5-5.5,7.6c-10.8,0.2-21.6,0.4-32.4-0.1c-5.5-0.2-7.7-4.5-7.8-9.5
		C503.7,142.8,503.8,135.7,503.8,128.6z"/>
	<path class="st7" d="M136.8,128.9c0-6.1,0.6-12.4-0.1-18.4c-1.1-9.7,4-12.9,12.4-13.2c6.2-0.2,12.5-0.6,18.6,0.2
		c13.2,1.8,20.4,10.8,19.6,23.4c-0.7,11.5-8.6,19.5-21.5,19.1c-9.8-0.3-11.6,3.6-10.6,11.7c0.6,4.5,0.3,8.4-6.2,8.2
		c-5.8-0.2-11.7,0.3-11.9-7.7c-0.2-7.8,0-15.5,0-23.3C136.9,128.9,136.8,128.9,136.8,128.9z M159.7,126.6c6-0.2,9.5-2.7,9.3-8.2
		c-0.3-5.5-4.2-7.5-9.4-7.5c-7.7,0.1-3.8,5.9-4.4,9.2C154.4,123.8,154.6,127.6,159.7,126.6z"/>
	<path class="st8" d="M472,97.9c5.9,0,11.8,0.2,17.7-0.1c4.6-0.2,7.7,0.8,8,6c0.3,4.9-1.5,9.5-6.7,8.6c-12-2-11.3,5.1-11.1,12.9
		c0.3,8.7-0.1,17.5,0.2,26.3c0.2,5.2-0.3,8.7-7.1,8.4c-6.2-0.3-11.2-0.8-11.1-8.7c0.1-10.4-0.4-20.8,0.1-31.1c0.3-6-1.5-8.2-7.6-7.5
		c-5.2,0.6-10,0.5-9.9-6.9c0.1-7.6,5.1-8,10.7-7.9C460.9,97.9,466.4,97.9,472,97.9z"/>
	<path class="st9" d="M558.6,126.1c0-6.8,0.2-13.6-0.1-20.4c-0.2-5.2,0.4-8.7,7.1-8.4c6.3,0.2,11,1.2,11,8.9
		c-0.1,10.7,0.3,21.4-0.1,32c-0.3,5.9,1.5,8.4,7.6,7.6c3.5-0.4,7.2,0.1,10.8-0.1c5-0.4,7.3,1.7,7.2,6.7c-0.1,4.6-1.9,7.4-6.9,7.4
		c-9.1,0-18.3,0.1-27.4-0.1c-5.9-0.1-8.9-3.6-9-9.3C558.6,142.2,558.7,134.1,558.6,126.1C558.7,126.1,558.6,126.1,558.6,126.1z"/>
	<path class="st10" d="M125.3,73.7c-0.1,3.5,0.3,7.4-4.1,8c-5.3,0.7-5.5-3.5-5.7-7.1c-1.7-25.4-13.4-44.9-34.8-58.8
		c-3-1.9-5.5-4.3-3.2-7.9c2.5-3.8,5.7-1.8,8.5,0C110.2,23.5,122.9,45.8,125.3,73.7z"/>
	<path class="st10" d="M108,74.1c0,3.5,0.1,7.2-4.3,7.7c-5.4,0.6-5.1-3.6-5.4-7.2c-1.9-18.4-10-33.1-25.7-43.6c-2.9-1.9-7-4-3.8-8.3
		c2.9-3.9,6.4-1.5,9.4,0.6C96.3,35.5,106,52.7,108,74.1z"/>
	<path class="st10" d="M90.5,73.2c0,4.2,0.6,8.4-4.7,8.6c-4.4,0.1-4.8-3.4-5.1-6.8c-1.1-12.3-6.7-22.1-17-29.2
		c-3-2.1-6.7-4.4-3.6-8.4c3-4.1,6.4-1.1,9.3,0.9C82.2,46.8,88.6,59,90.5,73.2z"/>
	<path class="st6" d="M46.1,77.4c-0.2,2.5-1.2,4.3-4,4.5c-3,0.3-5-1-5.2-4.2c-0.1-2.7,1.5-4.4,3.9-4.7
		C43.8,72.7,45.7,74.4,46.1,77.4z"/>
	<path class="st9" d="M106.9,168.3c-3.5-23.7-19.2-38.8-40.1-49.1C47.3,111.1,27.9,103,8.4,95c-0.1,12.9-0.1,25.9-0.3,38.8
		c-0.6,29.4,14.3,48.7,40.2,60.8c8.4,3.9,17,7.5,26.1,11.5v0c0,0,0.9,0.4,1.1,0.5c0,0,0,0,0,0l18.5,8.2l-19.6-4.6
		c0,0-2.6-0.6-2.6-0.6c-4.8,5.5-8,16.9-9.9,33.7c7.6,0,15.1,0.2,22.5,0c12.5-0.4,22.4-8.3,23.1-20.7
		C108.4,204.5,109.6,186.2,106.9,168.3z"/>
</g>
</svg>
